HIERARCHY
ROOT Hips
{
	OFFSET -315.162994 89.907501 301.003998 
	CHANNELS 6 Xposition Yposition Zposition Zrotation Xrotation Yrotation
	JOINT ToSpine
	{
		OFFSET -0.010506 1.389070 -7.139560 
		CHANNELS 3 Zrotation Xrotation Yrotation
		JOINT Spine
		{
			OFFSET 0.010506 10.000000 1.000000 
			CHANNELS 3 Zrotation Xrotation Yrotation
			JOINT Spine1
			{
				OFFSET 0.000000 12.000000 1.606370 
				CHANNELS 3 Zrotation Xrotation Yrotation
				JOINT Neck
				{
					OFFSET 0.000000 27.000000 2.266580 
					CHANNELS 3 Zrotation Xrotation Yrotation
					JOINT Head
					{
						OFFSET 0.000000 9.000000 2.127050 
						CHANNELS 3 Zrotation Xrotation Yrotation
						End Site
						{
							OFFSET 0.000000 11.000000 2.000000 
						}
					}
				}
				JOINT LeftShoulder
				{
					OFFSET 8.000000 19.610901 2.864520 
					CHANNELS 3 Zrotation Xrotation Yrotation
					JOINT LeftArm
					{
						OFFSET 12.000000 1.000000 0.681055 
						CHANNELS 3 Zrotation Xrotation Yrotation
						JOINT LeftForeArm
						{
							OFFSET 19.000000 0.000000 -1.526080 
							CHANNELS 3 Zrotation Xrotation Yrotation
							JOINT LeftHand
							{
								OFFSET 23.000000 0.000000 0.000000 
								CHANNELS 3 Zrotation Xrotation Yrotation
								End Site
								{
									OFFSET 10.000000 0.000000 0.000000 
								}
							}
						}
					}
				}
				JOINT RightShoulder
				{
					OFFSET -8.000000 19.610901 2.864520 
					CHANNELS 3 Zrotation Xrotation Yrotation
					JOINT RightArm
					{
						OFFSET -12.000000 1.000000 0.681055 
						CHANNELS 3 Zrotation Xrotation Yrotation
						JOINT RightForeArm
						{
							OFFSET -19.000000 0.000000 -1.526080 
							CHANNELS 3 Zrotation Xrotation Yrotation
							JOINT RightHand
							{
								OFFSET -23.000000 0.000000 0.000000 
								CHANNELS 3 Zrotation Xrotation Yrotation
								End Site
								{
									OFFSET -10.000000 0.000000 0.000000 
								}
							}
						}
					}
				}
			}
		}
	}
	JOINT LeftUpLeg
	{
		OFFSET 9.000000 -7.172450 0.000000 
		CHANNELS 3 Zrotation Xrotation Yrotation
		JOINT LeftLeg
		{
			OFFSET 0.000000 -44.111301 0.000000 
			CHANNELS 3 Zrotation Xrotation Yrotation
			JOINT LeftFoot
			{
				OFFSET 0.000000 -36.182899 0.000000 
				CHANNELS 3 Zrotation Xrotation Yrotation
				JOINT LeftToeBase
				{
					OFFSET 0.000000 -4.841840 13.000000 
					CHANNELS 3 Zrotation Xrotation Yrotation
					End Site
					{
						OFFSET 0.000000 1.000000 6.000000 
					}
				}
			}
		}
	}
	JOINT RightUpLeg
	{
		OFFSET -9.000000 -7.172450 0.000000 
		CHANNELS 3 Zrotation Xrotation Yrotation
		JOINT RightLeg
		{
			OFFSET 0.000000 -44.055099 0.000000 
			CHANNELS 3 Zrotation Xrotation Yrotation
			JOINT RightFoot
			{
				OFFSET 0.000000 -36.146900 0.000000 
				CHANNELS 3 Zrotation Xrotation Yrotation
				JOINT RightToeBase
				{
					OFFSET 0.000000 -4.922560 13.000000 
					CHANNELS 3 Zrotation Xrotation Yrotation
					End Site
					{
						OFFSET 0.000000 1.000000 6.000000 
					}
				}
			}
		}
	}
}
MOTION
Frames: 16
Frame Time: 0.033333
0.000000 0.000000 0.000000 7.366090 0.017673 138.919006 0.000000 0.000000 0.000000 -2.706800 1.419790 -2.877630 6.295110 6.708460 -4.520400 13.770000 3.859690 -3.067210 -1.783870 -0.363009 1.898670 -31.718700 3.873060 -6.729570 -34.433800 18.968300 -31.699400 -5.222270 -12.148200 0.846244 -7.524670 0.166686 -2.530650 27.200199 5.608870 13.223000 51.735500 6.107330 -5.389610 -0.162871 5.365970 12.462800 -4.979280 -0.650889 15.365200 5.967040 26.941200 12.472000 -2.071900 9.248550 -27.037300 -0.441630 -27.357401 -0.115063 -1.712370 13.539200 2.454380 8.752300 -20.045601 1.838130 2.116980 16.636200 -3.258790 -18.445000 9.967380 1.629000 4.833010 -18.521999 -4.328640 
0.000000 0.000000 0.000000 7.429500 -0.347529 139.628998 0.000000 0.000000 0.000000 -2.203480 -0.131710 -3.227370 6.271560 7.847450 -4.947270 13.211200 2.960750 -2.518070 -1.305660 0.956756 2.064360 -31.459700 3.744800 -6.450570 -35.672001 19.818100 -30.529900 -5.676600 -11.834900 3.599440 -7.678990 0.131165 -1.975350 26.554100 5.274260 12.531500 52.773102 7.199330 -4.714220 2.522860 -1.712940 7.899480 -2.689520 -0.222186 7.319910 6.963640 25.346201 11.856300 -0.591714 14.409100 -27.871700 -5.167040 -26.333300 -1.194430 -1.757200 13.136700 2.678190 8.929740 -19.932301 -0.304259 1.721180 20.117701 -1.844800 -17.270599 7.818210 1.186770 4.337820 -16.449301 -4.456010 
0.000000 0.000000 0.000000 8.097390 0.061340 139.097000 0.000000 0.000000 0.000000 -0.738719 -0.076886 -2.886380 4.144720 7.670580 -4.195390 14.842200 3.204820 -2.848790 -2.340750 1.095520 2.551360 -29.296200 3.732600 -7.046250 -39.245201 20.441299 -26.818199 -6.297920 -12.594900 4.821960 -8.821340 0.163403 -2.058160 27.562599 5.450910 12.566600 52.768398 7.522830 -4.691880 3.630790 -6.777300 5.104640 1.151330 0.087922 1.970260 8.141160 23.094801 10.899700 0.459066 23.894501 -27.889099 -8.340240 -22.407600 -1.652250 -2.009090 12.578600 3.548440 9.622670 -17.768499 -2.097350 0.963676 23.350000 0.170714 -17.854300 4.368750 0.683379 4.119260 -15.538200 -4.628720 
0.000000 0.000000 0.000000 8.584290 1.171120 138.201996 0.000000 0.000000 0.000000 0.128905 1.388390 -2.419300 2.801600 5.887700 -3.476300 14.169900 5.626020 -3.309730 -2.435600 -0.532135 2.117730 -29.964399 3.849800 -7.180660 -40.461399 21.536200 -21.227699 -6.523210 -13.180000 4.675540 -10.397800 0.257797 -2.845810 27.460100 5.858440 13.850600 52.741199 6.756670 -5.891780 3.712030 -8.864870 6.224270 4.427990 0.168077 4.687240 8.674560 19.629400 8.957520 0.062502 35.206501 -26.668100 -6.536800 -14.941900 -0.907438 -2.681900 12.217700 5.629500 9.481230 -14.313500 -3.525970 0.490158 24.550301 1.934460 -18.627100 1.063110 0.173516 4.084720 -15.398800 -4.807760 
0.000000 0.000000 0.000000 8.039470 1.267180 138.638000 0.000000 0.000000 0.000000 1.201370 0.712448 -2.257890 1.479440 6.113290 -3.196070 12.604800 5.124830 -3.078390 -1.811140 -0.364670 1.624640 -30.604799 3.782840 -6.797710 -41.286499 21.723101 -17.243900 -6.051270 -12.186200 4.818020 -10.543300 0.277284 -3.008530 26.330900 5.615810 13.671700 53.305000 7.062200 -5.225880 3.517780 -7.756180 8.344410 3.363070 0.102008 3.111010 9.436890 12.599100 7.486200 0.000164 46.832802 -25.735300 -6.710120 -6.014860 -0.303232 -2.841550 13.538700 5.643500 8.751400 -11.787100 -5.140260 0.597143 23.755699 2.720740 -18.844999 -0.935249 -0.153600 4.125310 -15.548500 -4.418590 
0.000000 0.000000 0.000000 8.181850 0.900022 139.235992 0.000000 0.000000 0.000000 3.287570 0.914383 -1.752030 -0.559158 5.901340 -2.267500 13.312200 4.581850 -3.625520 -2.389940 -0.972160 1.391150 -29.726801 3.776860 -7.023950 -43.364799 20.508600 -13.333500 -5.252870 -11.938200 3.613300 -10.304900 0.285716 -3.176440 26.772301 5.550060 13.253600 52.654900 7.603210 -4.161480 3.396210 -6.940040 10.238400 2.950260 0.087148 3.101540 11.253600 5.423340 7.004400 -0.019255 56.951900 -24.547400 -7.314050 -4.360720 -0.289660 -2.475340 15.225900 4.185250 9.320160 -9.243830 -4.664730 0.972414 22.288401 1.314570 -18.716299 -2.374550 -0.391591 4.182470 -15.751000 -3.875950 
0.000000 0.000000 0.000000 8.423400 1.315710 139.429001 0.000000 0.000000 0.000000 4.583070 2.307790 -1.188100 -1.343850 5.092380 -1.314150 12.332400 5.451750 -3.963820 -1.976620 -2.376400 0.694065 -30.870001 3.768020 -6.680690 -43.465900 20.020901 -9.183890 -4.685580 -12.847900 0.659431 -9.650840 0.192040 -2.247360 26.911900 5.743120 13.760700 51.424900 8.033090 -3.543360 3.319340 -6.829590 11.464200 2.436540 0.098604 4.829080 11.658700 -0.275285 6.586530 0.062753 63.799000 -21.986799 -3.565050 -10.286000 -0.287465 -2.422630 16.303499 3.757190 9.355060 -6.288850 -3.730690 1.443260 21.133900 -0.217478 -18.761200 -3.633250 -0.600710 4.226390 -15.918100 -3.695510 
0.000000 0.000000 0.000000 8.065590 2.199430 139.328003 0.000000 0.000000 0.000000 5.361100 3.844590 -0.510379 -2.853730 4.558500 -0.078948 12.418200 4.634410 -4.659460 -2.160350 -1.911480 -0.006396 -30.472300 3.517680 -6.097430 -44.385101 18.842199 -6.617420 -4.342710 -14.373500 -1.834990 -10.266400 0.228423 -2.445870 26.648701 5.632670 13.559200 50.663399 8.931700 -1.433280 3.306180 -6.425980 11.916600 1.491720 0.053265 4.221810 10.350500 -5.505340 6.109450 0.008251 66.398102 -17.272301 0.537419 -14.884500 0.059958 -2.820270 16.621300 4.733900 8.481580 -2.882460 -2.998550 1.881350 18.910000 -0.984065 -18.451599 -4.455230 -0.723375 4.111520 -15.453500 -3.649070 
0.000000 0.000000 0.000000 7.350380 2.716320 139.505997 0.000000 0.000000 0.000000 6.435710 4.272660 0.156839 -5.285570 4.340530 1.245090 14.119200 4.979100 -5.900580 -3.207510 -2.147760 -0.413777 -28.639601 3.450730 -6.428660 -46.236401 16.297300 -4.372150 -3.994690 -15.719400 -3.165380 -11.388400 0.365783 -3.698330 26.829700 5.529690 13.172200 49.716599 9.789460 0.901458 3.505290 -6.714280 11.981800 0.653000 0.027065 4.312720 8.459400 -10.753300 5.186220 0.005483 65.529701 -11.897200 2.965570 -17.486799 0.456367 -3.153240 17.063400 5.500610 7.515450 0.382492 -2.929060 2.112010 15.867500 -0.965921 -18.229500 -4.662840 -0.748310 4.385420 -16.681000 -5.132960 
0.000000 0.000000 0.000000 6.588490 3.152590 138.779999 0.000000 0.000000 0.000000 7.500830 4.694430 1.099940 -7.254720 4.296630 2.746990 14.061800 5.102480 -6.428390 -3.485650 -2.214300 -0.893890 -27.891600 3.557690 -6.933460 -47.117901 15.285300 -2.376590 -3.782090 -15.484200 -5.128080 -10.621800 0.271377 -2.891050 26.063200 5.224450 12.599800 48.781898 9.128340 3.769240 1.801520 -0.669008 12.219600 3.843590 0.066813 3.411450 6.370910 -15.024200 4.843810 -0.109979 61.151501 -6.122120 4.360810 -18.637600 0.711814 -3.449200 17.470501 6.157900 6.619940 3.102180 -3.454420 1.798690 13.712000 0.424056 -18.583200 -5.251800 -0.860923 4.344090 -16.468901 -4.986310 
0.000000 0.000000 0.000000 5.744730 3.462840 138.242996 0.000000 0.000000 0.000000 8.159470 5.395130 1.504040 -7.909440 3.898790 3.433680 11.322600 4.472080 -5.540850 -2.120220 -1.667520 -1.274930 -28.990601 3.474190 -6.383700 -46.571899 16.064699 -0.434432 -3.903750 -15.655700 -7.420090 -10.309900 0.226563 -2.511540 24.169600 4.842990 12.335800 48.683800 9.316340 6.905030 1.097850 1.902290 12.181700 4.616680 0.088123 2.525170 3.995990 -18.372101 3.312410 -0.043687 53.723499 -2.234910 2.925330 -18.250999 0.472402 -4.045510 17.055901 7.861450 5.798340 5.360020 -4.374730 1.210970 12.444600 1.611390 -18.782200 -6.759650 -1.121250 4.102670 -15.452400 -4.229000 
0.000000 0.000000 0.000000 5.238480 3.381390 137.893005 0.000000 0.000000 0.000000 9.719060 5.237480 1.736580 -8.939260 4.226900 4.000150 8.357190 4.169020 -4.563240 -0.324850 -1.419190 -1.686520 -30.089800 3.422950 -5.946170 -45.785500 16.838100 0.877985 -4.176190 -16.531099 -8.498210 -10.360100 0.267648 -2.951880 23.076300 4.729770 12.504400 47.995499 10.859800 9.049490 2.095820 -2.777050 13.501300 1.028990 0.021339 2.205400 2.353360 -20.578600 1.961830 0.024951 44.131001 -2.125480 1.078530 -16.841499 0.157887 -4.167120 18.252300 7.779400 5.482660 7.591740 -5.117110 0.464103 11.546600 2.129260 -17.743601 -9.126260 -1.417200 3.856260 -14.310500 -3.369030 
0.000000 0.000000 0.000000 5.003760 3.477120 137.503006 0.000000 0.000000 0.000000 11.499600 5.759830 1.892940 -10.161000 4.049660 4.465930 5.384630 3.935540 -3.624740 1.029340 -1.560680 -2.040330 -31.243000 3.388970 -5.569740 -45.005600 17.679600 1.632890 -4.426540 -17.104300 -8.974970 -10.294200 0.252769 -2.806110 21.986000 4.615970 12.686300 47.094101 11.837400 11.582900 2.588900 -4.813840 14.471600 0.829714 0.009397 1.748660 0.994649 -21.421301 1.691310 0.172990 32.814201 -5.219200 1.119490 -13.592000 0.132759 -4.362630 19.122999 8.011610 5.141610 10.010000 -5.945710 0.120690 11.002600 2.896120 -18.360201 -10.797200 -1.751690 3.954320 -14.718700 -2.535720 
0.000000 0.000000 0.000000 4.650350 3.607180 137.587997 0.000000 0.000000 0.000000 12.574600 5.885280 2.057320 -10.813100 3.689720 4.719550 4.018460 4.164380 -3.560240 0.086795 -2.286810 -2.225910 -32.052601 3.410530 -5.432090 -45.051498 17.623400 2.530860 -4.406440 -17.028799 -8.771180 -10.397300 0.256237 -2.815600 21.496000 4.541860 12.700700 45.878399 12.621700 13.436200 2.951030 -6.047230 14.916900 -0.227641 -0.002882 1.981420 -0.473337 -21.276199 1.457810 -0.540263 20.677999 -8.691870 1.158820 -9.961490 0.100787 -4.786780 19.231199 9.047540 4.775530 12.564700 -6.888260 0.205780 10.405300 3.712000 -20.622999 -11.628800 -2.126700 4.670530 -17.876900 -4.555950 
0.000000 0.000000 0.000000 4.882220 3.503430 137.272995 0.000000 0.000000 0.000000 14.337400 5.651340 2.326620 -11.876000 3.629000 5.154190 3.580350 4.620880 -3.427420 -0.887551 -2.942140 -2.037540 -32.547798 3.440640 -5.395530 -45.412601 17.276800 3.319360 -4.336390 -16.855301 -8.426500 -10.358100 0.254119 -2.802790 23.156799 5.076940 13.578500 42.943100 12.705800 13.427900 2.844690 -6.698020 17.177601 0.498929 0.018133 2.411070 -1.026990 -20.337000 1.585500 -1.916690 10.293700 -8.533440 0.336752 -8.809210 0.024679 -4.606250 20.693399 8.111190 4.695720 14.861900 -7.796480 0.195259 11.602700 4.874520 -20.644800 -14.613000 -2.663030 4.641110 -17.890800 -5.420720 
0.000000 0.000000 0.000000 5.395090 3.314500 136.602997 0.000000 0.000000 0.000000 16.113899 5.323980 2.500020 -12.618900 3.964800 5.456530 2.640530 4.919020 -2.873700 -0.976403 -3.456870 -1.784330 -33.896198 3.391840 -4.977170 -45.181301 16.834200 4.049010 -4.434810 -17.475000 -8.545170 -10.335300 0.250897 -2.773850 24.449200 5.639740 14.753300 40.459702 12.259900 13.793300 2.496670 -6.166550 18.351700 1.256380 0.031830 2.935150 -1.404470 -20.178600 1.324360 -2.160940 5.669020 -6.814040 -1.180450 -9.827620 -0.111456 -4.536680 21.364100 7.758510 4.555870 17.030701 -8.775990 0.314809 13.441400 6.097080 -20.796200 -18.154100 -3.365680 4.501030 -17.214300 -5.016660 
